# xmcd
#
# Track frame offsets:
#	150
#	25153
#	39258
#	58790
#	86563
#	99592
#	110326
#	121948
#	144426
#	156739
#	168140
#	183139
#
# Disc length: 2676 seconds
#
# Revision: 1
# Processed by: cddbd v1.5.2PL0 Copyright (c) Steve Scherf et al.
# Submitted via: audiograbber 1.83.01
#
DISCID=940a720c
DTITLE=Golgotha - Old Seeds Bootleg
DYEAR=1973
DGENRE=Rock
TTITLE0=Somethings Moving
TTITLE1=Sunday Morning
TTITLE2=Sooner Or Later
TTITLE3=Seeing You
TTITLE4=Tuesday Afternoon
TTITLE5=Slopes Of Illusion
TTITLE6=Look Out For Me Woman
TTITLE7=Startin' New Daze
TTITLE8=Found What
TTITLE9=Long Ties Cut Loose
TTITLE10=She Is Coming
TTITLE11=News Tomorrow
EXTD=
EXTT0=
EXTT1=
EXTT2=
EXTT3=
EXTT4=
EXTT5=
EXTT6=
EXTT7=
EXTT8=
EXTT9=
EXTT10=
EXTT11=
PLAYORDER=
